<?xml version="1.0" standalone="no"?>
<!DOCTYPE svg PUBLIC "-//W3C//DTD SVG 20010904//EN"
 "http://www.w3.org/TR/2001/REC-SVG-20010904/DTD/svg10.dtd">
<svg version="1.0" xmlns="http://www.w3.org/2000/svg"
 width="700.000000pt" height="700.000000pt" viewBox="0 0 700.000000 700.000000"
 preserveAspectRatio="xMidYMid meet">
<metadata>
Created by potrace 1.14, written by Peter Selinger 2001-2017
</metadata>
<g transform="translate(0.000000,700.000000) scale(0.100000,-0.100000)"
fill="#000000" stroke="none">
<path d="M3270 6777 c-3 -3 -36 -7 -73 -11 -149 -14 -456 -93 -587 -152 -219
-98 -431 -229 -580 -358 -73 -64 -238 -234 -296 -306 -239 -298 -403 -644
-479 -1015 -91 -440 -54 -925 102 -1345 281 -756 922 -1308 1688 -1455 129
-25 200 -30 390 -30 278 0 448 25 675 101 153 51 378 157 458 214 l21 16 -75
234 c-152 472 -231 645 -351 766 -102 101 -201 130 -418 123 -39 -2 -151 -30
-210 -54 -82 -32 -221 -72 -281 -80 -115 -15 -289 -15 -354 0 -189 44 -345
174 -430 360 -27 61 -56 142 -66 186 -8 38 -34 202 -34 220 0 9 43 47 95 84
90 65 94 70 89 99 -12 66 -4 255 12 311 55 185 157 311 324 402 59 33 153 67
210 78 76 14 72 5 65 123 -3 58 -8 129 -10 157 -2 27 -7 100 -10 160 -3 61 -8
135 -10 165 -18 252 -17 274 7 310 45 67 107 65 303 -11 257 -100 432 -286
519 -553 39 -117 54 -219 60 -402 2 -74 19 -114 55 -133 10 -6 56 -13 102 -16
157 -10 292 -24 487 -50 84 -11 193 -30 402 -70 65 -12 97 -20 260 -60 158
-40 260 -69 314 -91 18 -7 19 -4 12 57 -3 35 -8 75 -11 89 -19 100 -30 147
-52 235 -14 55 -29 104 -34 110 -5 5 -9 17 -9 26 0 41 -116 302 -197 443 -336
585 -940 1006 -1578 1100 -23 4 -52 9 -65 12 -30 7 -434 17 -440 11z"/>
<path d="M3165 4519 c-31 -28 -35 -36 -35 -81 0 -41 5 -54 29 -79 16 -16 39
-30 50 -30 12 -1 27 -2 34 -3 21 -4 68 28 83 56 29 55 8 125 -46 153 -44 23
-76 18 -115 -16z"/>
<path d="M5055 4078 c-71 -39 -130 -140 -166 -288 -20 -81 -24 -120 -24 -265
0 -221 16 -314 77 -442 51 -108 119 -157 193 -139 38 10 89 65 123 133 l31 60
-25 53 -25 54 -19 -32 c-11 -18 -20 -36 -20 -41 0 -21 -72 -71 -102 -71 -89 0
-168 183 -169 396 -2 161 20 265 76 361 58 99 147 89 205 -24 l27 -51 25 52
26 52 -30 63 c-57 116 -136 166 -203 129z"/>
<path d="M5570 4008 c-15 -76 -15 -80 -25 -143 -5 -27 -9 -52 -10 -55 0 -3 -5
-27 -10 -55 -5 -27 -9 -52 -10 -55 -2 -7 -16 -88 -21 -120 -3 -14 -12 -63 -20
-110 -9 -47 -18 -98 -20 -114 -2 -15 -6 -35 -8 -45 -3 -9 -8 -38 -12 -66 -3
-27 -8 -53 -10 -56 -1 -3 -6 -28 -9 -55 -4 -27 -13 -77 -20 -111 l-13 -63 38
0 37 0 13 73 c8 39 14 74 15 77 1 3 4 28 9 55 15 99 4 91 119 89 56 -1 104 -2
108 -3 3 -1 11 -36 19 -78 7 -43 15 -85 17 -93 1 -8 5 -35 8 -59 8 -59 10 -61
51 -61 34 0 35 2 30 28 -4 15 -11 52 -16 82 -8 51 -16 94 -55 313 -8 45 -22
123 -30 172 -9 50 -18 101 -21 115 -7 39 -34 191 -40 225 -2 17 -7 37 -9 45
-2 8 -6 33 -10 55 -10 69 -14 75 -49 75 -33 0 -34 -1 -46 -62z m74 -304 c29
-155 35 -187 42 -238 3 -22 7 -42 9 -46 2 -3 -31 -5 -73 -5 -70 0 -77 2 -76
20 1 21 10 86 18 121 2 12 7 39 10 60 6 39 25 146 31 174 2 8 4 24 4 34 2 39
12 6 35 -120z"/>
<path d="M5962 3515 l0 -555 21 -1 c115 -4 224 3 242 15 27 18 63 93 80 164
20 85 12 274 -15 347 -25 70 -25 68 -8 160 30 155 1 324 -66 396 -27 29 -29
29 -141 29 l-114 0 1 -555z m228 377 c24 -21 38 -83 35 -155 -3 -57 -27 -116
-48 -118 -6 -1 -42 -2 -79 -3 l-68 -2 0 148 0 147 70 0 c50 -1 76 -6 90 -17z
m22 -460 c29 -29 45 -115 36 -190 -12 -90 -31 -116 -94 -122 -27 -3 -66 -3
-86 -1 l-38 3 0 163 c0 187 -9 173 105 167 40 -2 66 -9 77 -20z"/>
<path d="M260 1711 c0 -3 4 -22 10 -41 5 -19 11 -46 14 -60 2 -14 21 -90 41
-170 19 -80 38 -153 40 -163 2 -11 21 -85 40 -165 112 -453 204 -832 210 -865
4 -20 12 -40 18 -44 15 -9 127 -11 132 -3 2 4 7 22 10 41 3 19 8 42 11 51 3 9
6 25 9 35 2 10 19 88 38 173 20 85 38 166 41 180 2 14 11 54 20 90 8 36 17 76
20 90 3 14 7 34 10 45 7 33 47 216 51 237 2 11 6 27 9 36 3 9 7 28 10 42 3 14
7 35 10 48 11 44 17 68 25 107 5 22 23 102 40 177 17 76 31 144 31 151 0 10
-17 13 -60 13 l-60 0 -9 -36 c-5 -19 -17 -71 -26 -115 -10 -44 -24 -107 -32
-140 -8 -33 -17 -75 -19 -94 -3 -19 -7 -37 -9 -42 -5 -7 -41 -165 -50 -214 -2
-11 -12 -58 -24 -105 -11 -47 -22 -97 -24 -110 -6 -28 -61 -275 -80 -358 l-13
-53 -24 98 c-13 54 -25 100 -25 103 -1 3 -5 16 -8 30 -7 28 -65 266 -72 296
-2 10 -15 64 -29 119 -20 82 -75 307 -92 378 -2 9 -6 25 -8 35 -3 9 -15 60
-28 112 l-24 94 -62 1 c-34 1 -62 -1 -62 -4z"/>
<path d="M2096 1711 c-4 -7 -23 -92 -30 -131 -3 -14 -14 -69 -25 -124 -24
-114 -25 -115 -45 -221 -18 -90 -15 -77 -50 -245 -15 -69 -29 -136 -31 -150
-3 -14 -7 -36 -10 -50 -13 -68 -58 -286 -60 -295 -3 -16 -16 -79 -19 -95 -4
-22 -18 -92 -23 -115 -6 -31 -14 -67 -16 -78 -3 -14 111 -16 122 -2 6 9 14 44
36 163 2 13 7 32 10 42 3 10 8 31 10 46 2 16 7 43 11 59 3 17 7 36 7 43 0 15
-13 14 230 16 l198 1 8 -35 c5 -19 19 -78 30 -130 12 -52 27 -117 33 -145 7
-27 15 -54 20 -60 5 -5 33 -10 63 -10 41 -1 55 3 55 13 0 8 -13 69 -29 136
-28 114 -34 140 -47 206 -3 14 -7 33 -10 42 -5 16 -10 40 -20 88 -3 13 -14 63
-25 110 -12 47 -22 94 -25 105 -4 22 -12 56 -18 83 -2 9 -18 80 -36 157 -17
77 -40 176 -50 220 -11 44 -21 91 -24 105 -2 14 -9 43 -14 65 -11 41 -15 58
-31 133 -4 23 -12 46 -16 50 -8 8 -175 11 -179 3z m108 -226 c4 -22 18 -85 31
-140 13 -55 26 -111 28 -125 3 -14 10 -45 17 -70 7 -25 14 -54 16 -65 2 -11 6
-31 9 -45 3 -14 7 -34 9 -46 2 -11 11 -49 20 -85 9 -35 18 -73 20 -84 3 -11 8
-34 11 -50 l7 -30 -171 0 -171 0 0 25 c0 14 4 41 9 60 6 19 12 49 15 65 2 17
23 120 46 230 23 110 51 250 63 312 22 113 29 120 41 48z"/>
<path d="M3306 1710 c-2 -3 -2 -84 0 -180 1 -96 5 -391 8 -655 4 -264 8 -525
9 -580 l2 -100 328 0 327 0 -6 460 c-3 253 -7 586 -9 740 -2 154 -4 289 -4
301 -1 19 -7 21 -64 20 l-63 0 2 -135 c1 -75 5 -365 9 -645 3 -279 6 -511 7
-515 0 -3 0 -17 -1 -31 l-1 -25 -192 1 c-106 1 -197 2 -203 3 -6 1 -11 87 -12
234 -1 127 -4 394 -6 592 -3 198 -6 396 -6 441 l-1 81 -61 -1 c-33 0 -62 -3
-63 -6z"/>
<path d="M4743 1713 c-5 -2 -8 -72 -7 -156 2 -83 6 -384 9 -667 4 -283 7 -555
8 -605 l2 -90 312 0 312 0 6 25 c2 14 7 48 11 75 3 28 7 54 8 60 0 5 -99 9
-256 10 -141 0 -260 3 -264 7 -4 4 -9 155 -10 335 -4 308 -12 910 -13 979 -1
31 -1 31 -55 30 -30 0 -59 -2 -63 -3z"/>
<path d="M6069 1710 c-6 -21 -3 -160 3 -161 4 -1 76 -2 160 -3 l152 -1 3 -245
c1 -135 5 -396 7 -580 3 -184 5 -378 5 -430 l1 -96 58 1 c31 0 60 4 63 8 3 5
5 106 3 225 -1 119 -5 420 -8 667 l-6 451 148 -1 c81 -1 153 1 160 3 8 3 12
29 12 86 l0 82 -380 0 c-209 0 -381 -3 -381 -6z"/>
</g>
</svg>
