<?xml version="1.0" encoding="UTF-8" standalone="no"?>
<svg
   data-noselect=""
   viewBox="0 0 300 100"
   width="300"
   height="100"
   preserveAspectRatio="none"
   version="1.1"
   class="svg-canvas"
   id="svg59"
   sodipodi:docname="vault.cab.logo.svg"
   inkscape:version="1.1.2 (76b9e6a115, 2022-02-25)"
   xmlns:inkscape="http://www.inkscape.org/namespaces/inkscape"
   xmlns:sodipodi="http://sodipodi.sourceforge.net/DTD/sodipodi-0.dtd"
   xmlns="http://www.w3.org/2000/svg"
   xmlns:svg="http://www.w3.org/2000/svg">
  <sodipodi:namedview
     id="namedview61"
     pagecolor="#ffffff"
     bordercolor="#666666"
     borderopacity="1.0"
     inkscape:pageshadow="2"
     inkscape:pageopacity="0.0"
     inkscape:pagecheckerboard="true"
     showgrid="false"
     inkscape:zoom="2"
     inkscape:cx="129.25"
     inkscape:cy="45.75"
     inkscape:window-width="1848"
     inkscape:window-height="1009"
     inkscape:window-x="72"
     inkscape:window-y="34"
     inkscape:window-maximized="1"
     inkscape:current-layer="svg59" />
  <defs
     id="defs2" />
  <g
     id="g13"
     transform="matrix(0.55310306,0,0,0.55972234,3.987799,4.0360325)">
    <path
       d="m 109.8,65.1 c 19,0.9 41.8,4.8 57.8,10 C 162.9,30.6 123.9,-2.7 78.8,0.1 32.5,3.1 -2.8,43 0.2,89.4 3.1,135.8 43,171 89.4,168 c 13.9,-0.9 26.7,-5.1 37.8,-11.8 l -2.7,-8.1 c -6.1,-18.8 -11,-31.2 -22.5,-32.3 -2.3,-0.2 -4.3,-0.3 -6.1,-0.1 -3.7,0.2 -6.1,1.1 -8.8,2.1 -3.6,1.3 -7.6,2.7 -15.3,3.2 -7.7,0.5 -14.1,-1.5 -18.8,-5.9 -6.3,-5.8 -8.2,-14.4 -8.8,-19 l -0.5,-3.6 7.2,-5 C 49.6,79.4 51,72.7 55,67.5 60.9,59.8 70.7,57.9 73.9,57.5 L 72,27.8 c -0.2,-2.9 2.5,-5.2 5.4,-4.4 l 2.2,0.6 c 8.6,2.2 15.2,6.4 19.7,12.6 5.9,8.2 6.8,18 6.6,24.4 -0.1,2.2 1.7,4 3.9,4.1 z"
       fill="#bc9d5d"
       stroke-width="0"
       id="path9" />
    <path
       d="m 76,80.1 c -2.2,0.1 -3.9,2.1 -3.8,4.3 0.1,2.2 2.1,3.9 4.3,3.8 2.2,-0.1 3.9,-2.1 3.8,-4.3 C 80.1,81.7 78.2,80 76,80.1 Z"
       fill="#bc9d5d"
       stroke-width="0"
       id="path11" />
  </g>
  <g
     id="shape_KGivLP6lOk"
     transform="matrix(0.29247223,0,0,0.42022024,45.451963,-21.391961)"
     filter="">
    <g
       id="g29">
      <svg
         version="1.1"
         width="352.39999"
         height="398.10001"
         viewBox="0 0 352.4 398.1"
         id="svg27">
        <g
           data-width="130.187035580203"
           transform="translate(55.756482)"
           id="g25">
          <path
             d="m 21.62,-5.68 q 9.3,0 15.3,-7.13 v 0 l -4.22,-3.57 q -4.35,5.19 -11.08,5.19 v 0 q -6,0 -10.24,-4.24 v 0 Q 7.13,-19.68 7.13,-25.68 v 0 q 0,-5.99 4.25,-10.24 v 0 q 4.24,-4.21 10.24,-4.21 v 0 q 6.73,0 11.08,5.16 v 0 l 4.22,-3.54 q -6,-7.16 -15.3,-7.16 v 0 q -8.3,0 -14.13,5.86 v 0 q -5.87,5.86 -5.87,14.13 v 0 q 0,8.3 5.87,14.14 v 0 q 5.83,5.86 14.13,5.86 z"
             transform="translate(0,216.05)"
             fill="#bc9d5d"
             stroke="#bc9d5d"
             stroke-width="0.092"
             data-glyph-w="44.539794737672"
             data-glyph-h="57.674267578125"
             data-glyph-ascender="46.37724609375"
             data-glyph-descender="-11.297021484375"
             id="path19" />
          <path
             d="M 28.78,-16.7 H 10.92 L 6.54,-6.38 h -6 l 16.38,-38.59 h 5.84 l 16.37,38.59 h -5.97 z m -15.51,-5.52 h 13.16 l -6.59,-15.51 z"
             transform="translate(44.539795,216.05)"
             fill="#bc9d5d"
             stroke="#bc9d5d"
             stroke-width="0.092"
             data-glyph-w="45.674902159547"
             data-glyph-h="57.674267578125"
             data-glyph-ascender="46.37724609375"
             data-glyph-descender="-11.297021484375"
             id="path21" />
          <path
             d="m 2.7,-6.38 h 18.27 q 4.71,0 8.06,-3.32 v 0 q 3.32,-3.33 3.32,-8.06 v 0 q 0,-4.7 -3.32,-8.02 v 0 q -0.73,-0.73 -1.54,-1.3 v 0 q 2.78,-3.03 2.78,-7.22 v 0 q 0,-4.4 -3.11,-7.54 v 0 q -3.13,-3.13 -7.57,-3.13 v 0 H 2.7 Z m 5.52,-17.21 h 12.75 q 2.43,0 4.14,1.7 v 0 q 1.73,1.73 1.73,4.13 v 0 q 0,2.44 -1.73,4.17 v 0 q -1.71,1.7 -4.14,1.7 v 0 H 8.22 Z m 0,-15.87 h 11.37 q 2.14,0 3.65,1.51 v 0 q 1.52,1.52 1.52,3.65 v 0 q 0,2.17 -1.52,3.68 v 0 q -1.51,1.51 -3.65,1.51 v 0 H 8.22 Z"
             transform="translate(90.214697,216.05)"
             fill="#bc9d5d"
             stroke="#bc9d5d"
             stroke-width="0.092"
             data-glyph-w="39.972338682984"
             data-glyph-h="57.674267578125"
             data-glyph-ascender="46.37724609375"
             data-glyph-descender="-11.297021484375"
             id="path23" />
        </g>
      </svg>
    </g>
  </g>
  <g
     id="shape_bZA9wR1feH"
     transform="matrix(1.0201585,0,0,1.3687802,78.667562,-117.50344)"
     filter=""
     style="opacity:1">
    <g
       id="g46">
      <svg
         version="1.1"
         width="332"
         height="247"
         viewBox="0 0 332 247"
         id="svg44">
        <g
           data-width="194.38383235319"
           transform="translate(34.558084)"
           id="g42">
          <path
             d="m 8.77,-0.34 10.75,-24.59 h 3.36 L 10.07,4.38 H 6.47 L 0,-24.93 h 3.36 z"
             transform="matrix(1,0,0.12278456,1,0,137)"
             fill="#bc9d5d"
             stroke="#bc9d5d"
             stroke-width="0.057"
             data-glyph-w="37.767066470638"
             data-glyph-h="41.1"
             data-glyph-ascender="34.25"
             data-glyph-descender="-6.85"
             id="path32" />
          <path
             d="M 22.67,4.38 H 19.32 L 17.88,-2.91 H 6.34 L 3.36,4.38 H 0 l 11.95,-29.31 h 4.94 z M 14.11,-21.99 7.64,-6.13 h 9.59 z"
             transform="matrix(1,0,0.12278456,1,37.767066,137)"
             fill="#bc9d5d"
             stroke="#bc9d5d"
             stroke-width="0.057"
             data-glyph-w="41.671566470638"
             data-glyph-h="41.1"
             data-glyph-ascender="34.25"
             data-glyph-descender="-6.85"
             id="path34" />
          <path
             d="m 14.73,1.2 2.74,-26.13 h 3.35 L 17.74,4.38 H 0 L 3.08,-24.93 H 6.44 L 3.7,1.2 Z"
             transform="matrix(1,0,0.12278456,1,79.438633,137)"
             fill="#bc9d5d"
             stroke="#bc9d5d"
             stroke-width="0.057"
             data-glyph-w="38.760316470638"
             data-glyph-h="41.1"
             data-glyph-ascender="34.25"
             data-glyph-descender="-6.85"
             id="path36" />
          <path
             d="M 6.44,-24.93 3.7,1.2 H 18.05 L 16.89,4.38 H 0 l 3.08,-29.31 z"
             transform="matrix(1,0,0.12278456,1,118.19895,137)"
             fill="#bc9d5d"
             stroke="#bc9d5d"
             stroke-width="0.057"
             data-glyph-w="38.726066470638"
             data-glyph-h="41.1"
             data-glyph-ascender="34.25"
             data-glyph-descender="-6.85"
             id="path38" />
          <path
             d="M 0.34,-24.93 H 21 l -0.35,3.22 H 11.99 L 9.25,4.38 H 5.89 L 8.63,-21.71 H 0 Z"
             transform="matrix(1,0,0.12278456,1,156.92502,137)"
             fill="#bc9d5d"
             stroke="#bc9d5d"
             stroke-width="0.057"
             data-glyph-w="37.458816470638"
             data-glyph-h="41.1"
             data-glyph-ascender="34.25"
             data-glyph-descender="-6.85"
             id="path40" />
        </g>
      </svg>
    </g>
  </g>
  <defs
     id="defs55">
    <pattern
       id="wm_tile"
       x="0"
       y="0"
       width="20%"
       height="27%"
       patternunits="objectBoundingBox">
      <g
         id="wm_lm"
         transform="translate(-188.000000, -323.000000)"
         fill="#cccccc">
        <text
           font-size="15"
           transform="translate(270.490979, 373.245789) rotate(-390.000000) translate(-270.490979, -373.245789)"
           id="text51"><tspan
             x="187.490979"
             opacity=".3"
             y="378.245789"
             id="tspan49">copyright © copyright © </tspan></text>
      </g>
    </pattern>
  </defs>
</svg>
